<svg width="375" height="685" viewBox="0 0 375 685" fill="none" xmlns="http://www.w3.org/2000/svg">
<rect width="375" height="685" fill="white"/>
<rect y="642" width="375" height="43" fill="#00D115"/>
<path d="M198.034 664.142C198.31 664.142 198.532 664.226 198.7 664.394C198.868 664.55 198.952 664.76 198.952 665.024V668.894C198.952 669.446 198.88 669.836 198.736 670.064C198.592 670.292 198.298 670.478 197.854 670.622C197.374 670.79 196.816 670.922 196.18 671.018C195.544 671.114 194.932 671.162 194.344 671.162C193.036 671.162 191.902 670.904 190.942 670.388C189.982 669.872 189.244 669.128 188.728 668.156C188.224 667.172 187.972 666.002 187.972 664.646C187.972 663.314 188.224 662.162 188.728 661.19C189.244 660.206 189.97 659.456 190.906 658.94C191.842 658.412 192.946 658.148 194.218 658.148C195.91 658.148 197.296 658.604 198.376 659.516C198.52 659.648 198.622 659.78 198.682 659.912C198.754 660.044 198.79 660.2 198.79 660.38C198.79 660.644 198.718 660.866 198.574 661.046C198.43 661.226 198.256 661.316 198.052 661.316C197.92 661.316 197.8 661.298 197.692 661.262C197.584 661.214 197.458 661.142 197.314 661.046C196.786 660.674 196.294 660.416 195.838 660.272C195.382 660.116 194.866 660.038 194.29 660.038C192.982 660.038 191.992 660.428 191.32 661.208C190.66 661.976 190.33 663.122 190.33 664.646C190.33 667.766 191.698 669.326 194.434 669.326C195.25 669.326 196.066 669.212 196.882 668.984V665.798H194.848C194.56 665.798 194.332 665.726 194.164 665.582C194.008 665.438 193.93 665.234 193.93 664.97C193.93 664.706 194.008 664.502 194.164 664.358C194.332 664.214 194.56 664.142 194.848 664.142H198.034ZM207.221 671.162C205.985 671.162 204.911 670.898 203.999 670.37C203.099 669.842 202.403 669.086 201.911 668.102C201.419 667.118 201.173 665.966 201.173 664.646C201.173 663.326 201.413 662.18 201.893 661.208C202.385 660.224 203.087 659.468 203.999 658.94C204.911 658.412 205.985 658.148 207.221 658.148C208.457 658.148 209.525 658.412 210.425 658.94C211.337 659.468 212.033 660.224 212.513 661.208C213.005 662.18 213.251 663.326 213.251 664.646C213.251 665.966 213.005 667.118 212.513 668.102C212.021 669.086 211.319 669.842 210.407 670.37C209.507 670.898 208.445 671.162 207.221 671.162ZM207.221 669.308C208.385 669.308 209.291 668.906 209.939 668.102C210.599 667.298 210.929 666.146 210.929 664.646C210.929 663.146 210.599 662 209.939 661.208C209.291 660.404 208.385 660.002 207.221 660.002C206.045 660.002 205.127 660.404 204.467 661.208C203.819 662 203.495 663.146 203.495 664.646C203.495 666.146 203.819 667.298 204.467 668.102C205.127 668.906 206.045 669.308 207.221 669.308ZM226.782 669.614C226.854 669.77 226.89 669.926 226.89 670.082C226.89 670.358 226.776 670.592 226.548 670.784C226.332 670.976 226.08 671.072 225.792 671.072C225.6 671.072 225.42 671.024 225.252 670.928C225.084 670.82 224.952 670.658 224.856 670.442L223.776 668.03H217.44L216.36 670.442C216.264 670.658 216.132 670.82 215.964 670.928C215.796 671.024 215.61 671.072 215.406 671.072C215.13 671.072 214.878 670.976 214.65 670.784C214.422 670.592 214.308 670.358 214.308 670.082C214.308 669.926 214.344 669.77 214.416 669.614L219.384 658.94C219.492 658.7 219.654 658.52 219.87 658.4C220.098 658.268 220.338 658.202 220.59 658.202C220.842 658.202 221.076 658.268 221.292 658.4C221.52 658.52 221.688 658.7 221.796 658.94L226.782 669.614ZM222.984 666.23L220.608 660.884L218.232 666.23H222.984ZM229.737 671C229.389 671 229.119 670.904 228.927 670.712C228.735 670.52 228.639 670.256 228.639 669.92V659.372C228.639 659.024 228.741 658.748 228.945 658.544C229.161 658.328 229.443 658.22 229.791 658.22C230.151 658.22 230.433 658.328 230.637 658.544C230.853 658.748 230.961 659.024 230.961 659.372V669.092H236.019C236.739 669.092 237.099 669.41 237.099 670.046C237.099 670.682 236.739 671 236.019 671H229.737Z" fill="white"/>
<path d="M132.704 176.085C167.398 57.2021 137.195 6.78554 111.464 0H61.5818H0V685H76.3267C73.1464 667.018 93.5002 599.909 200.358 475.327C307.215 350.744 253.721 279.5 199.941 296C162.934 306.178 98.0104 294.967 132.704 176.085Z" fill="#E0E0E0"/>
<path d="M204.048 191C214.949 165.4 249.883 53 265.987 0H375V685H327.926C316.777 603 304.637 416 345.269 324C385.901 232 296.957 218.333 247.405 223C228.411 223 193.147 216.6 204.048 191Z" fill="#E0E0E0"/>
</svg>
